<svg height="512pt" viewBox="0 0 512 512" width="512pt" xmlns="http://www.w3.org/2000/svg"><path d="m371.003906 420.367188v-91.261719h52.75v91.261719h25.800782l-52.175782 81.632812-52.179687-81.632812zm0 0" fill="#44c4a1"/><path d="m227.71875 13v167.816406l-46.902344 46.902344v-167.8125" fill="#e56353"/><path d="m10 56.90625h170.816406v170.8125h-170.816406zm0 0" fill="#fbcf62"/><path d="m227.71875 10-46.902344 46.90625h-170.816406l46.90625-46.90625zm0 0" fill="#f47f4c"/><path d="m502 13v167.816406l-46.90625 46.902344v-167.8125" fill="#44a6a7"/><path d="m284.28125 56.90625h170.8125v170.8125h-170.8125zm0 0" fill="#c4e7ea"/><path d="m502 10-46.90625 46.90625h-170.8125l46.902344-46.90625zm0 0" fill="#6cc8c3"/><path d="m60.65625 139.359375h69.5v53.28125h-69.5zm0 0" fill="#6cc8c3"/><path d="m267 339.109375c-.648438 0-1.308594-.070313-1.960938-.199219-.628906-.128906-1.257812-.320312-1.867187-.570312-.601563-.25-1.183594-.558594-1.722656-.917969-.550781-.363281-1.058594-.78125-1.519531-1.242187-.460938-.460938-.878907-.980469-1.25-1.519532-.359376-.550781-.671876-1.128906-.921876-1.730468-.25-.601563-.4375-1.230469-.570312-1.871094-.128906-.648438-.1875-1.296875-.1875-1.949219 0-.660156.058594-1.308594.1875-1.960937.132812-.636719.320312-1.269532.570312-1.867188.25-.601562.5625-1.179688.921876-1.730469.371093-.539062.789062-1.0625 1.25-1.519531.460937-.460938.96875-.882812 1.519531-1.242188.539062-.359374 1.121093-.667968 1.722656-.917968.609375-.25 1.238281-.441406 1.867187-.570313 1.289063-.261719 2.621094-.261719 3.910157 0 .640625.128907 1.269531.320313 1.871093.570313.609376.25 1.1875.558594 1.730469.917968.546875.359376 1.058594.78125 1.519531 1.242188 1.859376 1.867188 2.929688 4.4375 2.929688 7.078125 0 .652344-.070312 1.300781-.199219 1.949219-.128906.640625-.320312 1.269531-.570312 1.871094-.25.601562-.558594 1.179687-.921875 1.730468-.359375.539063-.777344 1.058594-1.238282 1.519532-.460937.460937-.96875.878906-1.519531 1.242187-.539062.359375-1.121093.667969-1.730469.917969-.601562.25-1.230468.441406-1.871093.570312s-1.300781.199219-1.949219.199219zm0 0"/><path d="m511.238281 6.171875c-1.546875-3.734375-5.191406-6.171875-9.238281-6.171875h-170.816406c-2.652344 0-5.195313 1.054688-7.070313 2.929688l-46.902343 46.90625c-.054688.050781-2.929688 2.996093-2.929688 7.070312v50.953125h-36.5625v-94.859375c0-.511719-.046875-5.109375-.761719-6.828125-1.546875-3.734375-5.191406-6.171875-9.238281-6.171875h-170.8125c-2.652344 0-5.195312 1.054688-7.070312 2.929688l-46.90625 46.90625c-.113282.109374-2.929688 3.371093-2.929688 7.148437v170.734375c0 5.523438 4.476562 10 10 10h160.816406v91.386719c0 5.523437 4.476563 10 10 10h45.566406c5.519532 0 10-4.476563 10-10 0-5.523438-4.480468-10-10-10h-35.566406v-87.242188l43.972656-43.976562c1.875-1.875 2.929688-4.417969 2.929688-7.074219v-52.953125h36.5625v99.859375c0 5.523438 4.476562 10 10 10h170.773438c4.820312 0 6.949218-2.765625 7.109374-2.929688l46.90625-46.902343c1.875-1.875 2.929688-4.417969 2.929688-7.070313v-167.816406c0-.511719-.046875-5.105469-.761719-6.828125zm-450.191406 13.828125h142.53125l-26.90625 26.90625h-142.527344zm-41.046875 46.90625h150.816406v150.8125h-150.816406zm197.71875 109.765625-26.902344 26.90625v-142.53125l26.902344-26.90625v73.71875h-6.449219c-5.523437 0-10 4.476563-10 10s4.476563 10 10 10h6.449219zm117.609375-156.671875h142.527344l-26.902344 26.90625h-142.53125zm-41.046875 46.90625h150.8125v150.8125h-150.8125zm170.8125 136.671875v-142.53125l26.90625-26.902344v142.527344zm0 0"/><path d="m131.089844 129.402344v-11.738282c0-19.671874-16.007813-35.679687-35.683594-35.679687-19.671875 0-35.679688 16.007813-35.679688 35.679687v11.738282c-5.085937.46875-9.070312 4.746094-9.070312 9.957031v53.28125c0 5.523437 4.480469 10 10 10h69.5c5.523438 0 10-4.476563 10-10v-53.28125c0-5.210937-3.980469-9.488281-9.066406-9.957031zm-35.683594-27.417969c8.648438 0 15.683594 7.035156 15.683594 15.679687v11.695313h-31.363282v-11.695313c0-8.644531 7.035157-15.679687 15.679688-15.679687zm24.75 80.65625h-49.5v-33.28125h14.75v4.28125c0 5.519531 4.480469 10 10 10 5.523438 0 10-4.480469 10-10v-4.28125h14.75zm0 0"/><path d="m455.09375 258.609375c-5.519531 0-10 4.476563-10 10v50.496094h-140.140625c-5.523437 0-10 4.476562-10 10 0 5.523437 4.476563 10 10 10h56.050781v71.261719h-15.804687c-3.652344 0-7.015625 1.992187-8.769531 5.199218-1.753907 3.203125-1.621094 7.109375.34375 10.1875l52.179687 81.632813c1.835937 2.875 5.011719 4.613281 8.425781 4.613281 3.410156 0 6.589844-1.738281 8.425782-4.613281l52.175781-81.632813c1.96875-3.078125 2.097656-6.984375.34375-10.1875-1.753907-3.207031-5.117188-5.199218-8.769531-5.199218h-15.800782v-71.261719h21.34375c5.519532 0 10-4.476563 10-10v-60.496094c-.003906-5.523437-4.480468-10-10.003906-10zm-31.339844 171.757813h7.539063l-33.914063 53.066406-33.917968-53.066406h7.542968c5.519532 0 10-4.476563 10-10v-81.261719h32.75v81.261719c0 5.523437 4.476563 10 10 10zm0 0"/></svg>