<svg height="512pt" viewBox="-3 0 512 512.00075" width="512pt" xmlns="http://www.w3.org/2000/svg"><path d="m261.535156 173.515625h-231.625c-10.996094 0-19.910156 8.910156-19.910156 19.902344v288.679687c0 10.992188 8.914062 19.902344 19.910156 19.902344h446.808594c10.996094 0 19.910156-8.910156 19.910156-19.902344v-288.675781c0-10.992187-8.914062-19.90625-19.910156-19.90625h-130.375" fill="#52607e"/><path d="m231.847656 216.386719h-115.359375v242.742187h335.945313v-242.742187h-135.78125" fill="#fcfcfc"/><path d="m89.1875 337.757812c0-14.429687-11.699219-26.128906-26.132812-26.128906-14.4375 0-26.136719 11.699219-26.136719 26.128906 0 14.429688 11.699219 26.128907 26.136719 26.128907 14.433593 0 26.132812-11.699219 26.132812-26.128907zm0 0" fill="#fed99c"/><path d="m63.054688 373.886719c-19.925782 0-36.136719-16.207031-36.136719-36.128907 0-19.921874 16.210937-36.128906 36.136719-36.128906 19.925781 0 36.136718 16.207032 36.136718 36.128906 0 19.921876-16.210937 36.128907-36.136718 36.128907zm0-52.253907c-8.898438 0-16.136719 7.234376-16.136719 16.125 0 8.894532 7.238281 16.128907 16.136719 16.128907 8.894531 0 16.136718-7.234375 16.136718-16.128907-.003906-8.890624-7.242187-16.125-16.136718-16.125zm0 0"/><path d="m77.390625 424.855469h-28.671875c-5.523438 0-10-4.476563-10-10 0-5.523438 4.476562-10 10-10h28.671875c5.523437 0 10 4.476562 10 10 0 5.523437-4.476563 10-10 10zm0 0"/><path d="m77.390625 456.484375h-28.671875c-5.523438 0-10-4.480469-10-10 0-5.523437 4.476562-10 10-10h28.671875c5.523437 0 10 4.476563 10 10s-4.476563 10-10 10zm0 0"/><path d="m77.390625 239.03125h-28.671875c-5.523438 0-10-4.476562-10-10 0-5.519531 4.476562-10 10-10h28.671875c5.523437 0 10 4.480469 10 10 0 5.523438-4.476563 10-10 10zm0 0"/><path d="m77.390625 270.660156h-28.671875c-5.523438 0-10-4.476562-10-10 0-5.523437 4.476562-10 10-10h28.671875c5.523437 0 10 4.476563 10 10 0 5.523438-4.476563 10-10 10zm0 0"/><path d="m215.730469 242.550781-.019531.027344 1.851562 55.667969 52.769531-17.863282.019531-.027343zm0 0" fill="#a5e6ff"/><path d="m413.101562 15.890625c-15.085937-10.4375-35.777343-6.675781-46.222656 8.402344l-20.019531 28.90625 54.625 37.804687 20.019531-28.90625c10.441406-15.082031 6.679688-35.765625-8.402344-46.207031zm0 0" fill="#f3756a"/><path d="m215.726562 242.539062 131.125-189.351562 54.609376 37.816406-131.125 189.351563zm0 0" fill="#50b4ff"/><path d="m333.460938 415.800781h-144.894532c-17.671875 0-32.050781-14.371093-32.050781-32.042969v-2.429687c0-17.667969 14.378906-32.042969 32.050781-32.042969h18.039063c5.523437 0 10 4.476563 10 10 0 5.523438-4.476563 10-10 10h-18.039063c-6.644531 0-12.050781 5.402344-12.050781 12.042969v2.429687c0 6.640626 5.40625 12.042969 12.050781 12.042969h144.894532c5.519531 0 10 4.480469 10 10 0 5.523438-4.476563 10-10 10zm0 0"/><path d="m243.375 369.285156c-.652344 0-1.3125-.070312-1.960938-.199218-.628906-.128907-1.261718-.320313-1.871093-.570313-.601563-.25-1.179688-.558594-1.71875-.917969-.550781-.359375-1.0625-.78125-1.519531-1.242187-.460938-.460938-.882813-.96875-1.25-1.519531-.351563-.539063-.660157-1.121094-.910157-1.730469-.25-.601563-.453125-1.230469-.582031-1.867188-.128906-.644531-.1875-1.300781-.1875-1.953125 0-.648437.058594-1.308594.1875-1.957031.128906-.632813.320312-1.261719.570312-1.871094.25-.601562.558594-1.179687.921876-1.71875.367187-.554687.789062-1.0625 1.25-1.523437.457031-.457032.96875-.878906 1.519531-1.25.539062-.359375 1.117187-.660156 1.71875-.910156.609375-.25 1.242187-.449219 1.871093-.578126 1.289063-.25 2.621094-.25 3.910157 0 .640625.128907 1.269531.328126 1.871093.578126.609376.25 1.1875.550781 1.726563.910156.550781.371094 1.0625.792968 1.523437 1.25.457032.460937.878907.972656 1.238282 1.523437.359375.539063.671875 1.117188.921875 1.71875.25.609375.449219 1.238281.566406 1.871094.132813.648437.199219 1.308594.199219 1.957031 0 .652344-.066406 1.3125-.199219 1.953125-.128906.636719-.316406 1.269531-.566406 1.867188-.25.609375-.5625 1.191406-.921875 1.730469-.359375.550781-.78125 1.058593-1.238282 1.519531-.460937.460937-.972656.882812-1.523437 1.242187-.539063.359375-1.117187.667969-1.726563.917969-.601562.25-1.230468.441406-1.871093.570313-.640625.128906-1.300781.199218-1.949219.199218zm0 0"/><path d="m476.71875 163.515625h-113.289062l66.296874-95.726563c6.570313-9.488281 9.050782-20.96875 6.984376-32.324218-2.0625-11.355469-8.429688-21.226563-17.921876-27.796875-19.589843-13.5625-46.566406-8.65625-60.128906 10.929687l-100.359375 144.917969h-228.390625c-16.492187 0-29.910156 13.414063-29.910156 29.902344v288.679687c0 16.488282 13.417969 29.902344 29.910156 29.902344h446.808594c16.492188 0 29.910156-13.414062 29.910156-29.902344v-288.675781c0-16.492187-13.417968-29.90625-29.910156-29.90625zm-208.894531 102.925781-38.179688-26.421875 119.746094-172.90625 38.175781 26.421875zm-41.460938-4.367187 21.960938 15.199219-21.21875 7.183593zm-18.855469-25.214844c-.003906.003906-.007812.007813-.007812.011719-1.230469 1.769531-1.855469 3.886718-1.785156 6.039062l1.757812 52.863282c-.605468.527343-1.15625 1.140624-1.632812 1.832031l-7.097656 10.25c-1.976563 1.828125-3.214844 4.441406-3.214844 7.34375 0 .0625 0 .128906.003906.191406-.074219 3.246094 1.433594 6.464844 4.304688 8.449219 1.734374 1.203125 3.71875 1.78125 5.683593 1.78125.976563 0 1.945313-.144532 2.878907-.421875h181.179687c6.644531 0 12.050781 5.402343 12.050781 12.042969 0 6.640624-5.40625 12.042968-12.050781 12.042968h-107.960937c-5.523438 0-10 4.476563-10 10 0 5.519532 4.476562 10 10 10h107.960937c17.671875 0 32.050781-14.375 32.050781-32.042968 0-17.667969-14.378906-32.042969-32.050781-32.042969h-161.375l45.335937-15.347657c1.238282-.417968 2.382813-1.082031 3.363282-1.9375.003906-.003906.011718-.011718.015625-.015624.023437-.019532.042969-.039063.066406-.054688.03125-.03125.0625-.058594.09375-.085938.007813-.007812.015625-.015624.019531-.023437.476563-.433594.914063-.917969 1.308594-1.453125.007812-.011719.015625-.023438.023438-.035156.027343-.035156.054687-.074219.082031-.113282.007812-.007812.011719-.015624.019531-.023437.003906-.007813.007812-.011719.011719-.019531.007812-.011719.019531-.027344.03125-.042969l41.316406-59.660156h122.542969v222.742187h-315.945313v-222.742187h88.269531zm167.59375-206.875c7.289063-10.519531 21.777344-13.15625 32.308594-5.871094 5.097656 3.53125 8.515625 8.832031 9.625 14.929688 1.109375 6.097656-.222656 12.265625-3.753906 17.359375l-14.324219 20.6875-38.179687-26.421875zm111.527344 452.113281c0 5.460938-4.445312 9.902344-9.910156 9.902344h-446.808594c-5.464844 0-9.910156-4.441406-9.910156-9.902344v-288.675781c0-5.464844 4.445312-9.90625 9.910156-9.90625h214.539063l-15.839844 22.871094h-112.121094c-5.523437 0-10 4.480469-10 10v242.742187c0 5.523438 4.476563 10 10 10h335.945313c5.523437 0 10.003906-4.476562 10.003906-10v-242.742187c0-5.519531-4.480469-10-10.003906-10h-118.691406l15.835937-22.871094h127.140625c5.464844 0 9.910156 4.441406 9.910156 9.90625zm0 0"/></svg>